<svg width="25" height="25" viewBox="0 0 25 25" fill="none" xmlns="http://www.w3.org/2000/svg">
<g id="call">
<path id="Vector" d="M7.04 5.77246C7.1 6.66246 7.25 7.53246 7.49 8.36246L6.29 9.56246C5.88 8.36246 5.62 7.09246 5.53 5.77246H7.04ZM16.9 17.7925C17.75 18.0325 18.62 18.1825 19.5 18.2425V19.7325C18.18 19.6425 16.91 19.3825 15.7 18.9825L16.9 17.7925ZM8 3.77246H4.5C3.95 3.77246 3.5 4.22246 3.5 4.77246C3.5 14.1625 11.11 21.7725 20.5 21.7725C21.05 21.7725 21.5 21.3225 21.5 20.7725V17.2825C21.5 16.7325 21.05 16.2825 20.5 16.2825C19.26 16.2825 18.05 16.0825 16.93 15.7125C16.83 15.6725 16.72 15.6625 16.62 15.6625C16.36 15.6625 16.11 15.7625 15.91 15.9525L13.71 18.1525C10.88 16.7025 8.56 14.3925 7.12 11.5625L9.32 9.36246C9.6 9.08246 9.68 8.69246 9.57 8.34246C9.2 7.22246 9 6.02246 9 4.77246C9 4.22246 8.55 3.77246 8 3.77246Z" fill="#F7F7F7"/>
</g>
</svg>
