<svg width="20" height="21" viewBox="0 0 20 21" fill="none" xmlns="http://www.w3.org/2000/svg">
<path d="M9.9375 19.875C15.125 19.875 19.3125 15.6875 19.3125 10.5H0.5625C0.5625 15.6875 4.75 19.875 9.9375 19.875Z" fill="white"/>
<path d="M9.9375 1.125C4.75 1.125 0.5625 5.3125 0.5625 10.5H19.3125C19.3125 5.3125 15.125 1.125 9.9375 1.125Z" fill="#ED4C5C"/>
<path d="M18.7987 10H1.07626C1.33447 5.32241 5.19396 1.625 9.9375 1.625C14.681 1.625 18.5405 5.32241 18.7987 10ZM18.7987 11C18.5405 15.6776 14.681 19.375 9.9375 19.375C5.19396 19.375 1.33447 15.6776 1.07626 11H18.7987Z" stroke="#1A1A1A"/>
</svg>
