<svg width="17" height="16" viewBox="0 0 17 16" fill="none" xmlns="http://www.w3.org/2000/svg">
<path fill-rule="evenodd" clip-rule="evenodd" d="M4.24669 0.833496C3.23417 0.833496 2.41336 1.65431 2.41336 2.66683C2.41336 3.67935 3.23417 4.50016 4.24669 4.50016C5.25922 4.50016 6.08003 3.67935 6.08003 2.66683C6.08003 1.65431 5.25922 0.833496 4.24669 0.833496ZM3.41336 2.66683C3.41336 2.20659 3.78646 1.8335 4.24669 1.8335C4.70693 1.8335 5.08003 2.20659 5.08003 2.66683C5.08003 3.12707 4.70693 3.50016 4.24669 3.50016C3.78646 3.50016 3.41336 3.12707 3.41336 2.66683Z" fill="#F7F7F7"/>
<path fill-rule="evenodd" clip-rule="evenodd" d="M2.41336 5.3335C2.41336 5.05735 2.63722 4.8335 2.91336 4.8335H5.58003C5.85617 4.8335 6.08003 5.05735 6.08003 5.3335V14.0002C6.08003 14.2763 5.85617 14.5002 5.58003 14.5002H2.91336C2.63722 14.5002 2.41336 14.2763 2.41336 14.0002V5.3335ZM3.41336 5.8335V13.5002H5.08003V5.8335H3.41336Z" fill="#F7F7F7"/>
<path fill-rule="evenodd" clip-rule="evenodd" d="M7.08003 5.3335C7.08003 5.05735 7.30389 4.8335 7.58003 4.8335H10.2467C10.5228 4.8335 10.7467 5.05735 10.7467 5.3335V5.62285L11.0369 5.49848C11.5358 5.28467 12.0693 5.15059 12.6089 5.10154C14.4588 4.93336 16.08 6.38708 16.08 8.25366V14.0002C16.08 14.2763 15.8562 14.5002 15.58 14.5002H12.9134C12.6372 14.5002 12.4134 14.2763 12.4134 14.0002V9.3335C12.4134 9.11248 12.3256 8.90052 12.1693 8.74424C12.013 8.58796 11.801 8.50016 11.58 8.50016C11.359 8.50016 11.1471 8.58796 10.9908 8.74424C10.8345 8.90052 10.7467 9.11248 10.7467 9.3335V14.0002C10.7467 14.2763 10.5228 14.5002 10.2467 14.5002H7.58003C7.30389 14.5002 7.08003 14.2763 7.08003 14.0002V5.3335ZM8.08003 5.8335V13.5002H9.7467V9.3335C9.7467 8.84727 9.93985 8.38095 10.2837 8.03714C10.6275 7.69332 11.0938 7.50016 11.58 7.50016C12.0663 7.50016 12.5326 7.69332 12.8764 8.03714C13.2202 8.38095 13.4134 8.84727 13.4134 9.3335V13.5002H15.08V8.25366C15.08 6.98408 13.9727 5.98168 12.6994 6.09743C12.2634 6.13707 11.8323 6.24555 11.4308 6.41763L10.4437 6.84069C10.2892 6.9069 10.1118 6.89106 9.97145 6.79854C9.83114 6.70602 9.7467 6.54919 9.7467 6.38112V5.8335H8.08003Z" fill="#F7F7F7"/>
</svg>
