<svg width="52" height="52" viewBox="0 0 52 52" fill="none" xmlns="http://www.w3.org/2000/svg">
<circle cx="26.3999" cy="26.373" r="24" fill="#F7F7F7"/>
<path fill-rule="evenodd" clip-rule="evenodd" d="M34.5785 16.7734H18.217C17.4351 16.7734 16.7998 17.3489 16.7998 18.0581V33.3158C16.7998 34.0257 17.4351 34.602 18.217 34.602H34.5785C35.3618 34.602 35.9998 34.0257 35.9998 33.3158V18.0581C35.9998 17.3489 35.3618 16.7734 34.5785 16.7734ZM20.9596 19.3236C21.8419 19.3236 22.5591 20.0105 22.5591 20.8559C22.5591 21.7022 21.8419 22.3891 20.9596 22.3891C20.075 22.3891 19.3591 21.7022 19.3591 20.8559C19.3591 20.0105 20.075 19.3236 20.9596 19.3236ZM19.5747 32.0581H22.3347V23.5517H19.5747V32.0581ZM27.2337 23.3554H24.4778V32.0535H27.3487V27.7506C27.3487 26.6162 27.5784 25.5175 29.0733 25.5175C30.5466 25.5175 30.5664 26.815 30.5664 27.8236V32.0535H33.4378V27.2824C33.4378 24.9408 32.9007 23.1393 29.9909 23.1393C28.5931 23.1393 27.6557 23.8602 27.2722 24.5441H27.2337V23.3554Z" fill="#333333"/>
</svg>
