<svg width="52" height="52" viewBox="0 0 52 52" fill="none" xmlns="http://www.w3.org/2000/svg">
<circle cx="26" cy="26.373" r="24" fill="#F7F7F7"/>
<g clip-path="url(#clip0_415_2765)">
<path d="M31.9917 19.5273C31.8499 19.454 31.7119 19.3736 31.5782 19.2865C31.1896 19.0296 30.8333 18.7269 30.517 18.3849C29.7246 17.4787 29.4287 16.5593 29.3205 15.9163H29.3242C29.2337 15.3815 29.271 15.0361 29.2775 15.0361H25.6702V28.9829C25.6702 29.1696 25.6702 29.3553 25.6627 29.5383C25.6627 29.5607 25.6599 29.5812 25.659 29.6064C25.659 29.6157 25.659 29.6269 25.6562 29.6372V29.6456C25.6183 30.1459 25.4581 30.6292 25.1895 31.053C24.921 31.4768 24.5524 31.8281 24.1162 32.076C23.6611 32.3349 23.1464 32.4706 22.6229 32.4699C20.9429 32.4699 19.5802 31.0997 19.5802 29.4076C19.5802 27.7145 20.9429 26.3444 22.6229 26.3444C22.9411 26.3444 23.2575 26.3948 23.5599 26.4937L23.5646 22.8201C22.6462 22.7016 21.7132 22.7748 20.8246 23.0351C19.9359 23.2953 19.1108 23.737 18.4014 24.3321C17.7797 24.8721 17.2569 25.5164 16.8567 26.2361C16.7046 26.4984 16.1297 27.554 16.0606 29.2657C16.0167 30.2364 16.3089 31.2444 16.4479 31.6597V31.6691C16.5347 31.9136 16.8745 32.7499 17.427 33.4545C17.8726 34.0201 18.399 34.517 18.9894 34.9292V34.9199L18.9978 34.9292C20.7431 36.1145 22.6798 36.0371 22.6798 36.0371C23.0149 36.0231 24.1377 36.0371 25.4126 35.4332C26.8266 34.7631 27.6311 33.7653 27.6311 33.7653C28.1455 33.1691 28.5545 32.4895 28.8407 31.7559C29.1674 30.8972 29.2757 29.8687 29.2757 29.458V22.0576C29.3195 22.0837 29.9029 22.4692 29.9029 22.4692C29.9029 22.4692 30.7429 23.0077 32.0523 23.3577C32.9913 23.6069 34.2578 23.6601 34.2578 23.6601V20.0789C33.8145 20.1275 32.9138 19.9875 31.9907 19.5283L31.9917 19.5273Z" fill="#333333"/>
</g>
<defs>
<clipPath id="clip0_415_2765">
<rect width="22.4" height="22.4" fill="white" transform="translate(13.9624 14.3359)"/>
</clipPath>
</defs>
</svg>
