<svg width="52" height="52" viewBox="0 0 52 52" fill="none" xmlns="http://www.w3.org/2000/svg">
<circle cx="25.8003" cy="26.373" r="24" fill="#F7F7F7"/>
<path fill-rule="evenodd" clip-rule="evenodd" d="M15.3877 21.906C15.3877 18.6225 18.0346 15.9609 21.3003 15.9609H30.0733C33.3386 15.9609 35.9859 18.6229 35.9859 21.906V30.6175C35.9859 33.901 33.339 36.5626 30.0733 36.5626H21.3003C18.035 36.5626 15.3877 33.9006 15.3877 30.6175V21.906ZM33.0362 20.9529C33.0362 21.7078 32.4321 22.3197 31.6869 22.3197C30.9418 22.3197 30.3377 21.7078 30.3377 20.9529C30.3377 20.1981 30.9418 19.5861 31.6869 19.5861C32.4321 19.5861 33.0362 20.1981 33.0362 20.9529ZM20.1377 26.3775C20.1377 29.507 22.6421 32.044 25.7315 32.044C28.8208 32.044 31.3252 29.507 31.3252 26.3775C31.3252 23.2481 28.8208 20.7111 25.7315 20.7111C22.6421 20.7111 20.1377 23.2481 20.1377 26.3775Z" fill="#333333"/>
<path fill-rule="evenodd" clip-rule="evenodd" d="M25.7389 30.0573C27.7415 30.0573 29.365 28.4128 29.365 26.3841C29.365 24.3555 27.7415 22.7109 25.7389 22.7109C23.7363 22.7109 22.1128 24.3555 22.1128 26.3841C22.1128 28.4128 23.7363 30.0573 25.7389 30.0573Z" fill="#333333"/>
</svg>
