<svg width="52" height="52" viewBox="0 0 52 52" fill="none" xmlns="http://www.w3.org/2000/svg">
<circle cx="26.2002" cy="26.373" r="24" fill="#F7F7F7"/>
<path fill-rule="evenodd" clip-rule="evenodd" d="M23.882 29.3519L23.881 22.9388L29.9336 26.1565L23.882 29.3519ZM37.1763 21.8362C37.1763 21.8362 36.9575 20.2634 36.2858 19.5707C35.434 18.6617 34.4792 18.6571 34.0414 18.6039C30.9068 18.373 26.2048 18.373 26.2048 18.373H26.1951C26.1951 18.373 21.4932 18.373 18.3586 18.6039C17.9207 18.6571 16.9663 18.6617 16.1142 19.5707C15.4426 20.2634 15.224 21.8362 15.224 21.8362C15.224 21.8362 15 23.6833 15 25.5303V27.2619C15 29.1089 15.224 30.956 15.224 30.956C15.224 30.956 15.4426 32.5288 16.1142 33.2215C16.9663 34.1306 18.0856 34.1018 18.5841 34.1971C20.3761 34.3722 26.2 34.4264 26.2 34.4264C26.2 34.4264 30.9068 34.4192 34.0414 34.1883C34.4792 34.1351 35.434 34.1306 36.2858 33.2215C36.9575 32.5288 37.1763 30.956 37.1763 30.956C37.1763 30.956 37.4 29.1089 37.4 27.2619V25.5303C37.4 23.6833 37.1763 21.8362 37.1763 21.8362Z" fill="#333333"/>
</svg>
